<mxfile host="app.diagrams.net" modified="2024-01-21T16:02:44.728Z" agent="Mozilla/5.0 (Windows NT 10.0; Win64; x64) AppleWebKit/537.36 (KHTML, like Gecko) Chrome/120.0.0.0 Safari/537.36" version="22.1.21" etag="dBLH2mfsIpY4-OPf_LEZ" type="github">
  <diagram name="PÃ¡gina-1" id="Gyonwv3hlDq52NkE0NrT">
    <mxGraphModel>
      <root>
        <mxCell id="0" />
        <mxCell id="1" parent="0" />
      </root>
    </mxGraphModel>
  </diagram>
</mxfile>
